<?xml version="1.0" encoding="UTF-8"?>
<svg version="1.1" xmlns="http://www.w3.org/2000/svg" width="1275" height="360">
<path d="M0 0 C55.44 0 110.88 0 168 0 C167.505 82.17 167.505 82.17 167 166 C112.22 166 57.44 166 1 166 C0.67 111.22 0.34 56.44 0 0 Z " fill="#F26524" transform="translate(1,11)"/>
<path d="M0 0 C55.44 0 110.88 0 168 0 C167.505 81.675 167.505 81.675 167 165 C112.22 165 57.44 165 1 165 C0.505 83.325 0.505 83.325 0 0 Z " fill="#00ADEE" transform="translate(1,193)"/>
<path d="M0 0 C54.45 0 108.9 0 165 0 C165 54.78 165 109.56 165 166 C110.55 166.33 56.1 166.66 0 167 C0 111.89 0 56.78 0 0 Z " fill="#8DC53F" transform="translate(184,11)"/>
<path d="M0 0 C81.675 0.495 81.675 0.495 165 1 C165 55.78 165 110.56 165 167 C83.325 166.505 83.325 166.505 0 166 C0 111.22 0 56.44 0 0 Z " fill="#FDC10A" transform="translate(184,192)"/>
<path d="M0 0 C11.88 0 23.76 0 36 0 C45.03825661 21.69181587 53.83088305 43.47811847 62.49169922 65.32275391 C63.76757973 68.54051647 65.04694105 71.75688378 66.32705688 74.97296333 C67.57442661 78.10869884 68.81824349 81.24584039 70.0625 84.3828125 C70.51560547 85.52033966 70.96871094 86.65786682 71.43554688 87.8298645 C78 104.41889873 78 104.41889873 78 109 C78.66 109 79.32 109 80 109 C80.1249585 108.12013428 80.24991699 107.24026855 80.37866211 106.33374023 C80.95939266 103.21787555 81.77775585 100.59883064 82.94140625 97.66015625 C83.35197266 96.61722412 83.76253906 95.57429199 84.18554688 94.49975586 C84.86713867 92.79831421 84.86713867 92.79831421 85.5625 91.0625 C86.04138672 89.85537354 86.52027344 88.64824707 87.01367188 87.40454102 C92.919486 72.55641616 99.0281581 57.78937947 105.11552429 43.01506042 C107.19857917 37.95635993 109.26988359 32.89306443 111.328125 27.82421875 C111.70825745 26.88838203 111.70825745 26.88838203 112.09606934 25.93363953 C113.2496306 23.09254763 114.40133703 20.25071922 115.55078125 17.40795898 C115.95167969 16.41997314 116.35257813 15.4319873 116.765625 14.4140625 C117.10368164 13.5782666 117.44173828 12.7424707 117.79003906 11.88134766 C119.46437681 7.89415353 121.24366248 3.95175941 123 0 C134.55 0 146.1 0 158 0 C158 48.51 158 97.02 158 147 C149.42 147 140.84 147 132 147 C132 110.37 132 73.74 132 36 C128.04 46.23 124.08 56.46 120 67 C114.07175873 81.38764173 114.07175873 81.38764173 111.50390625 87.52734375 C105.98721807 100.77099704 100.67520319 114.09983595 95.32202148 127.41015625 C94.52458884 129.38932776 93.72714469 131.36849463 92.9296875 133.34765625 C92.56250107 134.26301651 92.19531464 135.17837677 91.81700134 136.12147522 C91.47504227 136.96963303 91.13308319 137.81779083 90.78076172 138.69165039 C90.48386444 139.43024796 90.18696716 140.16884552 89.881073 140.92982483 C89.00397001 142.99067205 88.00163875 144.9967225 87 147 C81.39 147 75.78 147 70 147 C65.7286702 137.95178089 61.82428176 128.833573 58.10766602 119.54824829 C56.48961584 115.50693293 54.86038172 111.47013659 53.23046875 107.43359375 C52.7195015 106.16777718 52.7195015 106.16777718 52.19821167 104.87638855 C47.51960933 93.30954499 42.70937837 81.79678063 37.89916992 70.28417969 C37.22443505 68.66471836 36.54971124 67.04525242 35.875 65.42578125 C35.58687943 64.73927994 35.29875885 64.05277863 35.00190735 63.34547424 C31.50930288 54.95463372 28.2971831 46.47847084 25 38 C24.67 73.97 24.34 109.94 24 147 C16.08 147 8.16 147 0 147 C0 98.49 0 49.98 0 0 Z M23 31 C24 35 24 35 24 35 Z " fill="#7B7B7D" transform="translate(452,11)"/>
<path d="M0 0 C1.2694043 -0.01836914 1.2694043 -0.01836914 2.56445312 -0.03710938 C3.79905273 -0.04000977 3.79905273 -0.04000977 5.05859375 -0.04296875 C6.17512329 -0.04913208 6.17512329 -0.04913208 7.31420898 -0.05541992 C9.5625 0.1875 9.5625 0.1875 14.5625 2.1875 C14.5625 9.1175 14.5625 16.0475 14.5625 23.1875 C12.5825 22.8575 10.6025 22.5275 8.5625 22.1875 C6.54446336 22.05244478 4.52230841 21.96881316 2.5 21.9375 C1.49839844 21.91171875 0.49679687 21.8859375 -0.53515625 21.859375 C-4.00830385 22.25203233 -5.71229031 22.99997924 -8.4375 25.1875 C-11.90581022 30.22535459 -11.96922348 35.15189387 -12.125 41.0625 C-12.15916016 41.94164062 -12.19332031 42.82078125 -12.22851562 43.7265625 C-12.3104314 45.87977705 -12.37565579 48.03361551 -12.4375 50.1875 C-8.70439567 51.37567968 -5.16258355 51.30112739 -1.265625 51.28515625 C-0.5832074 51.2837413 0.09921021 51.28232635 0.80230713 51.28086853 C2.97241684 51.27529084 5.1424217 51.26274254 7.3125 51.25 C8.78775892 51.24498211 10.26301947 51.24041971 11.73828125 51.23632812 C15.34638798 51.22532875 18.95443375 51.20807953 22.5625 51.1875 C22.55202637 50.53152832 22.54155273 49.87555664 22.53076172 49.19970703 C22.48927497 46.23734342 22.46319738 43.27504084 22.4375 40.3125 C22.42074219 39.27996094 22.40398437 38.24742188 22.38671875 37.18359375 C22.38027344 36.19746094 22.37382813 35.21132813 22.3671875 34.1953125 C22.35671387 33.28410645 22.34624023 32.37290039 22.33544922 31.43408203 C22.5625 29.1875 22.5625 29.1875 24.5625 27.1875 C26.3553281 26.54594347 28.17619075 25.98150368 30.0078125 25.4609375 C30.97734863 25.18169434 31.94688477 24.90245117 32.94580078 24.61474609 C34.18056152 24.26750488 35.41532227 23.92026367 36.6875 23.5625 C40.60625 22.44875 44.525 21.335 48.5625 20.1875 C48.5625 30.4175 48.5625 40.6475 48.5625 51.1875 C56.41592779 51.14791007 56.41592779 51.14791007 64.26928711 51.09741211 C65.2413208 51.09491455 66.21335449 51.09241699 67.21484375 51.08984375 C68.71519165 51.08198853 68.71519165 51.08198853 70.24584961 51.07397461 C72.5625 51.1875 72.5625 51.1875 73.5625 52.1875 C73.64919432 53.6762186 73.66953494 55.168945 73.66015625 56.66015625 C73.65765869 57.46976807 73.65516113 58.27937988 73.65258789 59.11352539 C73.64348389 60.14856201 73.63437988 61.18359863 73.625 62.25 C73.604375 65.529375 73.58375 68.80875 73.5625 72.1875 C65.3125 72.1875 57.0625 72.1875 48.5625 72.1875 C48.6594812 80.05318561 48.762245 87.9183502 48.87988281 95.78369141 C48.91921088 98.45881121 48.95299768 101.13383827 48.984375 103.80908203 C49.03009565 107.65676032 49.08807993 111.5040894 49.1484375 115.3515625 C49.15998871 116.54552643 49.17153992 117.73949036 49.18344116 118.96963501 C49.20331085 120.09034393 49.22318054 121.21105286 49.24365234 122.36572266 C49.25697601 123.34723297 49.27029968 124.32874329 49.2840271 125.33999634 C49.69828751 129.575985 50.40411006 133.10150943 53.5625 136.0625 C60.52843742 138.67472653 66.54993336 137.19109047 73.5625 135.1875 C73.5625 142.1175 73.5625 149.0475 73.5625 156.1875 C62.20840943 160.02550245 48.72217928 161.83361833 37.5703125 156.37109375 C30.60337756 152.26412627 27.39589923 147.60903743 24.5625 140.1875 C22.543611 131.83134011 22.28979286 123.54006952 22.3671875 114.984375 C22.3700174 113.7805719 22.37284729 112.5767688 22.37576294 111.33648682 C22.38685098 107.53671825 22.41193394 103.73719589 22.4375 99.9375 C22.44754451 97.34245135 22.45666777 94.74739896 22.46484375 92.15234375 C22.48504114 85.83056075 22.52421183 79.50930208 22.5625 73.1875 C5.2375 72.6925 5.2375 72.6925 -12.4375 72.1875 C-12.43226318 74.72687256 -12.42702637 77.26624512 -12.42163086 79.88256836 C-12.40509539 88.25251061 -12.39402895 96.62245357 -12.38568783 104.9924078 C-12.3804589 110.06941018 -12.37336108 115.14639589 -12.36206055 120.22338867 C-12.35123201 125.11870552 -12.34522324 130.01400629 -12.34262276 134.90933418 C-12.34076845 136.78132951 -12.33714772 138.65332391 -12.33176994 140.52531242 C-12.32455996 143.13790699 -12.32350904 145.75043427 -12.32397461 148.36303711 C-12.32037933 149.14490387 -12.31678406 149.92677063 -12.31307983 150.73233032 C-12.32344784 156.07344784 -12.32344784 156.07344784 -13.4375 157.1875 C-21.6875 157.1875 -29.9375 157.1875 -38.4375 157.1875 C-38.4375 129.1375 -38.4375 101.0875 -38.4375 72.1875 C-44.3775 72.1875 -50.3175 72.1875 -56.4375 72.1875 C-56.4375 65.5875 -56.4375 58.9875 -56.4375 52.1875 C-52.37572627 51.37514525 -49.20399908 51.08017583 -45.125 51.125 C-43.52205078 51.13853516 -43.52205078 51.13853516 -41.88671875 51.15234375 C-41.07847656 51.16394531 -40.27023437 51.17554688 -39.4375 51.1875 C-39.42291748 50.60371582 -39.40833496 50.01993164 -39.39331055 49.41845703 C-39.31780915 46.71588041 -39.22149662 44.01440536 -39.125 41.3125 C-39.10244141 40.3946875 -39.07988281 39.476875 -39.05664062 38.53125 C-38.58904093 26.45867604 -35.15022687 16.23014042 -26.125 7.875 C-18.20109575 1.5358766 -9.8335436 0.0074553 0 0 Z " fill="#7C7C7E" transform="translate(1201.4375,0.8125)"/>
<path d="M0 0 C0 9.57 0 19.14 0 29 C-2.25424465 27.87287768 -4.50354322 26.73528013 -6.734375 25.5625 C-15.48007236 21.03105059 -22.24297202 18.86404591 -32.0625 18.6875 C-32.73571289 18.66961426 -33.40892578 18.65172852 -34.10253906 18.63330078 C-40.432828 18.64414562 -44.86706507 20.29365205 -49.8125 24.25 C-52.9379883 28.17918529 -54.19777278 31.42088153 -53.80859375 36.49609375 C-52.733936 43.01181148 -50.84046963 46.95685518 -45.328125 50.921875 C-43.80445313 51.82679688 -43.80445313 51.82679688 -42.25 52.75 C-41.68925781 53.08725098 -41.12851562 53.42450195 -40.55078125 53.77197266 C-37.41940609 55.63829281 -34.24883513 57.42195784 -31.046875 59.1640625 C-15.36989603 67.70651703 -0.33900619 77.05013875 5.62109375 94.85546875 C7.58519701 105.97188825 6.24908032 117.06279894 0.3125 126.6875 C-7.71555248 137.84413175 -18.70110981 142.95896401 -32.0078125 145.4921875 C-50.35307636 148.12891156 -66.45198104 145.27400948 -83 137 C-83 127.43 -83 117.86 -83 108 C-79.21613518 109.51354593 -76.96605915 110.59118418 -73.8125 112.875 C-62.72046814 120.41684587 -50.02215016 123.34926321 -36.734375 121.72265625 C-31.55973621 120.68575344 -28.67544073 118.58579583 -25 115 C-22.65537011 110.31074022 -23.21684743 103.67384044 -24.66015625 98.74609375 C-29.5605904 89.52284317 -41.15772034 84.39531631 -50 79.5625 C-64.48489625 71.63936085 -76.8676797 62.39696089 -82.25 46.25 C-85.09609557 33.17334469 -81.80555633 22.13636491 -75 11 C-74.34 11 -73.68 11 -73 11 C-72.75378906 10.401875 -72.50757813 9.80375 -72.25390625 9.1875 C-68.10376852 1.94738434 -56.7921188 -2.06107876 -49.0625 -4.1875 C-34.05579366 -7.47664111 -14.0844663 -7.04223315 0 0 Z " fill="#7C7C7E" transform="translate(527,214)"/>
<path d="M0 0 C0.65355469 0.50015625 1.30710937 1.0003125 1.98046875 1.515625 C12.39952601 10.62367505 16.34628401 25.70065985 17.27734375 38.9453125 C17.88613116 55.96667928 13.65820061 72.22149182 2 85 C-9.87151852 95.10877789 -21.8439954 99.41033911 -37.3125 99.3125 C-38.23458252 99.30758545 -39.15666504 99.3026709 -40.10668945 99.29760742 C-54.87505832 99.04434633 -66.95130785 94.68194945 -77.7421875 84.44921875 C-90.26937879 70.86003374 -91.61396204 54.13827135 -91.13183594 36.59423828 C-90.41195198 22.42852168 -83.4021369 9.44116153 -73 0 C-52.76396261 -15.41793325 -20.04322483 -15.76509112 0 0 Z M-58 19 C-65.03109364 30.570355 -66.69900009 42.16311412 -64.38671875 55.55078125 C-62.09733758 64.13343928 -58.25907971 70.27101862 -50.97265625 75.4375 C-43.70031248 79.33775141 -34.97547219 79.12866416 -27.08984375 77.33984375 C-21.2122439 75.29199222 -17.17141212 72.38841808 -14 67 C-8.26795873 54.65122943 -7.36596206 41.11660569 -11 28 C-13.86519729 20.8705833 -18.13367733 15.3923821 -25.09765625 11.96875 C-36.45585676 7.64181647 -50.01135831 9.21915707 -58 19 Z " fill="#7B7B7D" transform="translate(1127,61)"/>
<path d="M0 0 C10.53998647 8.41987425 14.79278238 20.12543238 17.5390625 32.94140625 C18.83162948 51.03734398 16.66719277 67.87685145 5.375 82.5859375 C-3.54353735 92.43405049 -16.11431118 98.74519053 -29.42504883 99.58032227 C-47.66858211 100.31323294 -63.01926539 98.14460038 -76.9609375 85.31640625 C-87.13327218 74.60490188 -90.7972334 60.436388 -90.5859375 46.00390625 C-90.57578613 44.99545654 -90.56563477 43.98700684 -90.55517578 42.94799805 C-90.23319404 27.49911439 -85.60244814 14.03188039 -74.76171875 2.69921875 C-54.45832216 -15.27224102 -21.63550301 -15.25188287 0 0 Z M-58.2109375 20.44140625 C-63.13262254 27.76534232 -64.5928709 36.14318272 -64.5234375 44.81640625 C-64.51779785 45.55955078 -64.5121582 46.30269531 -64.50634766 47.06835938 C-64.29452426 56.69059427 -61.85155108 65.20099531 -55.2109375 72.44140625 C-46.89270004 78.39925496 -39.26899391 79.05538306 -29.2109375 78.44140625 C-23.54153256 77.31108533 -19.23698598 74.55895583 -15.2109375 70.44140625 C-7.27663735 58.04406227 -7.15724567 43.41850318 -10.2109375 29.44140625 C-12.50311138 22.66299323 -15.95008334 17.11783805 -22.2109375 13.44140625 C-35.08423397 7.90925434 -48.76746012 9.51145558 -58.2109375 20.44140625 Z " fill="#7B7B7D" transform="translate(927.2109375,60.55859375)"/>
<path d="M0 0 C9.63380455 8.73220066 12.78042374 19.67555622 15.25390625 32.04296875 C15.25390625 39.30296875 15.25390625 46.56296875 15.25390625 54.04296875 C-7.84609375 54.04296875 -30.94609375 54.04296875 -54.74609375 54.04296875 C-50.94175177 67.03911337 -50.94175177 67.03911337 -41.6796875 76.078125 C-32.02954627 80.893448 -20.02331279 79.93452329 -9.92578125 77.17578125 C-3.89718973 75.02800294 1.60016917 72.0394494 7.25390625 69.04296875 C7.25390625 76.63296875 7.25390625 84.22296875 7.25390625 92.04296875 C-10.1114392 100.72564148 -30.05001486 104.85265302 -49.15234375 99.00390625 C-60.74449228 94.70922471 -69.31316779 88.26652551 -75.18359375 77.10546875 C-83.06238633 59.58962198 -83.43708032 41.24409586 -77.74609375 22.98046875 C-72.91520958 10.37200273 -64.36810459 0.93132152 -52.31640625 -5.19140625 C-35.18202769 -12.7458607 -15.10688454 -11.37259848 0 0 Z M-47.2109375 18.1640625 C-51.02830297 22.836207 -53.29450604 28.23661792 -54.74609375 34.04296875 C-40.22609375 34.04296875 -25.70609375 34.04296875 -10.74609375 34.04296875 C-11.77158826 22.87965502 -11.77158826 22.87965502 -18.3515625 14.6953125 C-27.76569957 8.68491377 -39.24583997 10.6508854 -47.2109375 18.1640625 Z " fill="#7B7B7D" transform="translate(1079.74609375,258.95703125)"/>
<path d="M0 0 C9.39478218 9.45783441 11.86730712 21.18402838 11.87548828 34.14599609 C11.87811676 35.19850555 11.87811676 35.19850555 11.88079834 36.27227783 C11.88516235 38.56696115 11.88230018 40.86156605 11.87890625 43.15625 C11.8795804 44.75810765 11.88055136 46.35996521 11.88180542 47.96182251 C11.8832746 51.30545026 11.88115126 54.64905117 11.87646484 57.99267578 C11.87074022 62.2869598 11.87406865 66.58118169 11.88003731 70.87546349 C11.88364039 74.17644728 11.88250599 77.47741619 11.87990952 80.77840042 C11.87924098 82.3629113 11.88006613 83.94742351 11.88238907 85.53193283 C11.88491443 87.73665746 11.88107798 89.94127918 11.87548828 92.14599609 C11.87469269 93.40173431 11.87389709 94.65747253 11.87307739 95.95126343 C11.74609375 98.7578125 11.74609375 98.7578125 10.74609375 99.7578125 C8.97750182 99.85727703 7.20497924 99.88861467 5.43359375 99.890625 C4.35851562 99.89191406 3.2834375 99.89320313 2.17578125 99.89453125 C1.04398438 99.89066406 -0.0878125 99.88679688 -1.25390625 99.8828125 C-2.38570312 99.88667969 -3.5175 99.89054687 -4.68359375 99.89453125 C-5.75867188 99.89324219 -6.83375 99.89195312 -7.94140625 99.890625 C-8.93527344 99.88949707 -9.92914062 99.88836914 -10.953125 99.88720703 C-13.25390625 99.7578125 -13.25390625 99.7578125 -14.25390625 98.7578125 C-14.4858349 97.24311802 -14.66605863 95.72026688 -14.81640625 94.1953125 C-14.90019531 93.36902344 -14.98398437 92.54273438 -15.0703125 91.69140625 C-15.13089844 91.05332031 -15.19148437 90.41523438 -15.25390625 89.7578125 C-15.72699219 90.21671875 -16.20007813 90.675625 -16.6875 91.1484375 C-26.02732337 99.81462839 -34.86958746 102.18989565 -47.421875 101.96875 C-57.16126672 101.43263669 -64.42358257 98.03896639 -71.01171875 90.8359375 C-78.10786203 81.99146906 -78.29538285 71.63604891 -77.25390625 60.7578125 C-75.47131598 52.43194178 -70.72253329 45.95694322 -63.84765625 41.03515625 C-50.18407293 32.85709976 -30.00586228 30.7578125 -14.25390625 30.7578125 C-15.42313603 22.4362531 -15.42313603 22.4362531 -20.25390625 15.7578125 C-28.18453251 11.13997949 -37.73910139 12.66586177 -46.25390625 14.7578125 C-53.73303288 17.10839516 -60.45722973 20.91072074 -67.25390625 24.7578125 C-67.39883344 20.82069813 -67.48785162 16.88426625 -67.56640625 12.9453125 C-67.60830078 11.82576172 -67.65019531 10.70621094 -67.69335938 9.55273438 C-67.70947266 8.47958984 -67.72558594 7.40644531 -67.7421875 6.30078125 C-67.76837158 5.31102295 -67.79455566 4.32126465 -67.8215332 3.30151367 C-67.25390625 0.7578125 -67.25390625 0.7578125 -64.94189453 -1.00634766 C-45.47557802 -9.9562563 -17.83465302 -14.75715572 0 0 Z M-29.56640625 51.0078125 C-30.93442383 51.17216797 -30.93442383 51.17216797 -32.33007812 51.33984375 C-39.04386284 52.25426604 -45.41116703 53.73167075 -50.19140625 58.8203125 C-52.4074812 62.86139035 -52.63921803 66.21113348 -52.25390625 70.7578125 C-49.85284758 75.21692146 -47.29171256 78.56438859 -42.50390625 80.4453125 C-34.97788571 81.49059313 -28.85019903 80.71779429 -22.25390625 76.7578125 C-17.55777162 72.12931767 -14.42435619 66.85659247 -14.05859375 60.20703125 C-14.08179688 58.96566406 -14.105 57.72429687 -14.12890625 56.4453125 C-14.14695312 55.19105469 -14.165 53.93679688 -14.18359375 52.64453125 C-14.20679688 51.69191406 -14.23 50.73929687 -14.25390625 49.7578125 C-19.44686031 49.68174215 -24.4288019 50.31228197 -29.56640625 51.0078125 Z " fill="#7C7C7E" transform="translate(879.25390625,258.2421875)"/>
<path d="M0 0 C8.58 0 17.16 0 26 0 C26.01981934 1.98249756 26.03963867 3.96499512 26.06005859 6.00756836 C26.12805243 12.58542984 26.20484389 19.16314352 26.28752708 25.74083614 C26.33730028 29.72570813 26.38363064 33.71055601 26.421875 37.69555664 C26.45896925 41.54713925 26.50539175 45.3985104 26.55806351 49.24991035 C26.5764801 50.71333641 26.59163412 52.17680757 26.60334396 53.64030266 C26.38173996 68.83401782 26.38173996 68.83401782 33 82 C38.93798928 85.7112433 45.13648418 85.80317738 52 85 C57.4593127 83.4915057 60.80314992 80.67936742 63.9921875 76.07421875 C66.51338567 70.88524113 67.25405601 65.76739541 67.31884766 60.05493164 C67.32889328 59.40042023 67.3389389 58.74590881 67.34928894 58.07156372 C67.37987869 55.93443585 67.39708755 53.79743179 67.4140625 51.66015625 C67.43279373 50.1679937 67.45236857 48.67584152 67.4727478 47.18370056 C67.52386881 43.27609398 67.56360104 39.36845313 67.60089111 35.46069336 C67.64105708 31.46524723 67.69209168 27.46994116 67.7421875 23.47460938 C67.83870936 15.64982883 67.92218344 7.82499302 68 0 C76.58 0 85.16 0 94 0 C94 34.98 94 69.96 94 106 C85.75 106 77.5 106 69 106 C67.33657163 104.33657163 67.63951903 102.2174291 67.4375 99.9375 C67.35371094 99.01839844 67.26992188 98.09929687 67.18359375 97.15234375 C67.12300781 96.44207031 67.06242188 95.73179687 67 95 C66.18208984 95.79664063 66.18208984 95.79664063 65.34765625 96.609375 C55.61485258 105.72659964 47.01826639 108.4431247 33.828125 108.2109375 C24.20735637 107.68081351 16.04784851 104.12654548 9.24609375 97.21875 C2.33585224 88.7671263 -0.16987114 78.25685063 -0.11352539 67.54760742 C-0.11367142 66.8153595 -0.11381744 66.08311157 -0.1139679 65.32867432 C-0.11327413 62.92090845 -0.10550692 60.51322102 -0.09765625 58.10546875 C-0.09579017 56.43109682 -0.09436716 54.75672435 -0.09336853 53.08235168 C-0.08955835 48.68472779 -0.0797409 44.28713716 -0.06866455 39.88952637 C-0.05841816 35.39836069 -0.053864 30.90718963 -0.04882812 26.41601562 C-0.03811725 17.61066016 -0.02053263 8.80533805 0 0 Z " fill="#7A7A7C" transform="translate(547,252)"/>
<path d="M0 0 C0 7.59 0 15.18 0 23 C-2.64 22.34 -5.28 21.68 -8 21 C-12.67847403 20.3810019 -16.05513299 20.56256157 -20.375 22.5625 C-25.31855972 27.15294832 -26.31103668 32.29739619 -26.61206055 38.78295898 C-26.64940308 40.09695679 -26.64940308 40.09695679 -26.6875 41.4375 C-26.790625 44.263125 -26.89375 47.08875 -27 50 C-19.41 50 -11.82 50 -4 50 C-4 56.93 -4 63.86 -4 71 C-11.28010989 73.4267033 -19.32609038 72 -27 72 C-27 99.39 -27 126.78 -27 155 C-35.41411823 157.10352956 -44.32692545 156 -53 156 C-53.33 128.28 -53.66 100.56 -54 72 C-59.28 72 -64.56 72 -70 72 C-71.58937556 70.41062444 -71.12981143 68.76100154 -71.1328125 66.5625 C-71.13410156 65.66789062 -71.13539063 64.77328125 -71.13671875 63.8515625 C-71.13091797 62.44003906 -71.13091797 62.44003906 -71.125 61 C-71.12886719 60.05898438 -71.13273438 59.11796875 -71.13671875 58.1484375 C-71.13542969 57.25382812 -71.13414062 56.35921875 -71.1328125 55.4375 C-71.13112061 54.19806641 -71.13112061 54.19806641 -71.12939453 52.93359375 C-71 51 -71 51 -70 50 C-67.13732433 49.92674832 -64.299281 49.90761795 -61.4375 49.9375 C-60.63119141 49.94201172 -59.82488281 49.94652344 -58.99414062 49.95117188 C-56.99606244 49.96299482 -54.99802217 49.98093086 -53 50 C-53.02094727 49.39115967 -53.04189453 48.78231934 -53.06347656 48.1550293 C-53.51372316 33.0931409 -53.67106413 20.69960043 -43 9 C-31.62337281 -3.04748481 -15.21225501 -3.80306375 0 0 Z " fill="#7B7B7D" transform="translate(801,202)"/>
<path d="M0 0 C0.34057617 2.52197266 0.34057617 2.52197266 0.29296875 5.6640625 C0.28330078 6.78554688 0.27363281 7.90703125 0.26367188 9.0625 C0.23853516 10.238125 0.21339844 11.41375 0.1875 12.625 C0.16719727 14.40003906 0.16719727 14.40003906 0.14648438 16.2109375 C0.11103916 19.14107539 0.06162769 22.07031459 0 25 C-3.03954839 23.80153344 -5.93684945 22.54982429 -8.8125 21 C-17.91264553 16.48375677 -27.08529778 15.71406964 -36.84765625 18.94140625 C-44.62693045 22.49664016 -49.00909215 27.23307073 -52.3125 35.0625 C-56.23819522 45.87852335 -55.80637112 56.17202761 -52 67 C-48.66284003 74.09146493 -44.23864528 78.05189719 -37 81 C-23.60991693 85.35107521 -11.76037069 79.88018534 0 74 C0 81.92 0 89.84 0 98 C-15.03083061 105.51541531 -31.99575094 107.86191719 -48.33984375 102.9609375 C-60.43323708 98.59239894 -70.56349641 91.12641126 -76.7890625 79.62890625 C-84.23422946 63.46568895 -84.96574211 45.98975489 -79.23828125 29.078125 C-73.55520499 14.95110893 -65.17997463 5.65314265 -51.3125 -0.875 C-36.35866417 -7.19591217 -14.13079131 -9.42052754 0 0 Z " fill="#7B7B7D" transform="translate(987,255)"/>
<path d="M0 0 C0 7.92 0 15.84 0 24 C-1.60875 23.21625 -3.2175 22.4325 -4.875 21.625 C-13.42425545 17.74596764 -22.54897454 15.27384194 -31.75 18.1875 C-35.32264728 20.17993791 -36.60886163 21.17436947 -38 25 C-38 29.00348973 -37.79058692 31.13290467 -35.0625 34.125 C-30.25264398 37.06980981 -25.22407869 39.50895716 -20.10693359 41.87548828 C-0.14396372 51.11609432 -0.14396372 51.11609432 4.5 62.3125 C7.19884426 70.98478623 7.11451838 79.80014423 3 88 C-3.41426893 98.35106892 -11.69901559 102.65837893 -23.21875 105.55859375 C-37.30193213 107.79370552 -50.63999093 105.45333636 -64 101 C-64 92.75 -64 84.5 -64 76 C-60.53655678 77.38537729 -57.50048502 78.75790999 -54.25 80.5 C-46.03670256 84.61879857 -36.7243756 86.71427339 -27.625 84.39453125 C-23.5686489 83.130378 -23.5686489 83.130378 -21 80 C-20.65047461 77.96317689 -20.65047461 77.96317689 -20.5625 75.6875 C-20.50191406 74.92824219 -20.44132813 74.16898437 -20.37890625 73.38671875 C-21.35492705 69.63609795 -23.86711342 67.98948634 -27 66 C-30.744932 64.01454813 -34.57778549 62.24973724 -38.4375 60.5 C-56.18691942 52.42282635 -56.18691942 52.42282635 -60.375 44.9375 C-60.85710938 44.10089844 -61.33921875 43.26429687 -61.8359375 42.40234375 C-65.23318769 35.39124017 -65.11129578 26.52973823 -63.28125 19.0703125 C-59.91147698 10.12954376 -54.28482027 4.55328334 -46 0 C-31.22059959 -6.28185388 -14.98509733 -4.99503244 0 0 Z " fill="#7B7B7D" transform="translate(1020,54)"/>
<path d="M0 0 C0.56762695 2.54370117 0.56762695 2.54370117 0.48828125 5.54296875 C0.47216797 6.61611328 0.45605469 7.68925781 0.43945312 8.79492188 C0.39755859 9.91447266 0.35566406 11.03402344 0.3125 12.1875 C0.28994141 13.31865234 0.26738281 14.44980469 0.24414062 15.61523438 C0.18514811 18.41147976 0.1028824 21.20508097 0 24 C-1.02480469 23.50628906 -2.04960938 23.01257813 -3.10546875 22.50390625 C-4.4660065 21.85647794 -5.82669139 21.20935879 -7.1875 20.5625 C-8.19780273 20.07426758 -8.19780273 20.07426758 -9.22851562 19.57617188 C-18.79247813 15.05078474 -27.69029327 14.9470121 -37.7734375 18.05078125 C-40.16679008 19.07110524 -41.93702916 20.43302002 -44 22 C-44.66 22 -45.32 22 -46 22 C-46 22.66 -46 23.32 -46 24 C-46.66 24 -47.32 24 -48 24 C-48.28875 24.59167969 -48.5775 25.18335937 -48.875 25.79296875 C-49.83516649 27.6766287 -50.90720445 29.50255736 -52 31.3125 C-56.78419593 40.97082036 -56.99123088 52.79546593 -54 63 C-51.37674205 70.4272966 -47.86648814 75.09653676 -41 79 C-40.40574219 79.33902344 -39.81148437 79.67804688 -39.19921875 80.02734375 C-31.1619999 83.76198292 -21.1902232 83.07691196 -13 80.25 C-8.9548324 78.58188965 -5.54332536 76.5439259 -2 74 C-1.34 74 -0.68 74 0 74 C0 81.59 0 89.18 0 97 C-14.95251901 104.4762595 -31.80338978 107.01457623 -48.1875 102.375 C-62.71042577 96.99683265 -71.9743166 88.22376539 -78.58984375 74.4296875 C-85.23172446 58.27575049 -84.12640686 40.00027799 -77.47265625 24.03515625 C-71.19044626 11.08747148 -61.39855442 2.20694427 -48 -3 C-33.92270282 -7.34788316 -12.52003322 -9.55548359 0 0 Z " fill="#7C7C7E" transform="translate(757,56)"/>
<path d="M0 0 C0 8.58 0 17.16 0 26 C-2.97 25.01 -5.94 24.02 -9 23 C-14.58148694 22.12902674 -19.47083786 22.26316865 -24.4375 25.125 C-31.33814669 30.19486287 -33.3791816 36.89744909 -35 45 C-35.43110078 49.73483821 -35.48753359 54.44671125 -35.51171875 59.19921875 C-35.52966995 60.51541702 -35.54762115 61.8316153 -35.56611633 63.18769836 C-35.61315297 66.64809302 -35.64325911 70.10842468 -35.66955566 73.56903076 C-35.69959838 77.11580857 -35.74604561 80.66236999 -35.79101562 84.20898438 C-35.87651948 91.13919861 -35.94409676 98.06948535 -36 105 C-39.34411216 105.69977598 -42.40859805 106.12802325 -45.828125 106.1328125 C-46.70984375 106.13410156 -47.5915625 106.13539063 -48.5 106.13671875 C-49.4075 106.13285156 -50.315 106.12898438 -51.25 106.125 C-52.17296875 106.12886719 -53.0959375 106.13273437 -54.046875 106.13671875 C-54.9234375 106.13542969 -55.8 106.13414062 -56.703125 106.1328125 C-57.50395508 106.13168457 -58.30478516 106.13055664 -59.12988281 106.12939453 C-61 106 -61 106 -62 105 C-62.09535213 103.63391674 -62.1218867 102.26294545 -62.12025452 100.89353943 C-62.12162918 100.00867859 -62.12300385 99.12381775 -62.12442017 98.21214294 C-62.12082489 97.23391068 -62.11722961 96.25567841 -62.11352539 95.24780273 C-62.11367142 94.2235318 -62.11381744 93.19926086 -62.1139679 92.14395142 C-62.11326828 88.74047771 -62.10547363 85.33705796 -62.09765625 81.93359375 C-62.09579224 79.58089732 -62.09436826 77.2282005 -62.09336853 74.87550354 C-62.08954199 68.66943295 -62.07971055 62.4633856 -62.06866455 56.25732422 C-62.05845334 49.93001622 -62.05387154 43.60270448 -62.04882812 37.27539062 C-62.0380884 24.85024854 -62.02049051 12.42512983 -62 0 C-53.42 0 -44.84 0 -36 0 C-35.67 4.29 -35.34 8.58 -35 13 C-34.154375 11.783125 -33.30875 10.56625 -32.4375 9.3125 C-27.99880181 3.43928109 -23.3397648 -0.24071508 -16.04296875 -1.72265625 C-10.08412161 -2.53160108 -5.85666361 -1.9522212 0 0 Z " fill="#7D7D7F" transform="translate(725,252)"/>
<path d="M0 0 C0 8.58 0 17.16 0 26 C-2.64 25.01 -5.28 24.02 -8 23 C-13.83922169 22.12411675 -19.29463376 22.1144337 -24.5 25.125 C-30.96782339 29.93234699 -33.36805349 36.35083745 -35 44 C-35.44285598 48.8469851 -35.48788874 53.67394755 -35.51171875 58.5390625 C-35.52860151 59.91484134 -35.54675647 61.2906051 -35.56611633 62.66635132 C-35.61323305 66.25334963 -35.64328827 69.84028677 -35.66955566 73.42749023 C-35.69955693 77.1015226 -35.74601894 80.77534485 -35.79101562 84.44921875 C-35.87661157 91.63272517 -35.94262345 98.8162026 -36 106 C-44.25 106 -52.5 106 -61 106 C-61.91998619 103.24004144 -62.1255507 101.61699623 -62.12698364 98.77365112 C-62.12980347 97.91272858 -62.13262329 97.05180603 -62.13552856 96.16479492 C-62.13350433 95.22337646 -62.1314801 94.28195801 -62.12939453 93.31201172 C-62.13114685 92.31831573 -62.13289917 91.32461975 -62.13470459 90.30081177 C-62.13911241 87.01041934 -62.1361893 83.72008049 -62.1328125 80.4296875 C-62.13348574 78.14950551 -62.13445593 75.86932359 -62.13571167 73.58914185 C-62.1371871 68.80925819 -62.13503862 64.02939321 -62.13037109 59.24951172 C-62.12466745 53.10770625 -62.12795781 46.96594442 -62.13394356 40.82414055 C-62.13754782 36.11629911 -62.13641132 31.40846811 -62.13381577 26.70062637 C-62.13314646 24.43509033 -62.13397506 22.16955336 -62.13629532 19.9040184 C-62.13882033 16.74571958 -62.13498369 13.58749265 -62.12939453 10.42919922 C-62.13141876 9.4837323 -62.13344299 8.53826538 -62.13552856 7.56414795 C-62.11426362 1.11426362 -62.11426362 1.11426362 -61 0 C-59.14630389 -0.08737645 -57.28932459 -0.10698153 -55.43359375 -0.09765625 C-54.30888672 -0.09443359 -53.18417969 -0.09121094 -52.02539062 -0.08789062 C-50.84138672 -0.07951172 -49.65738281 -0.07113281 -48.4375 -0.0625 C-47.24962891 -0.05798828 -46.06175781 -0.05347656 -44.83789062 -0.04882812 C-41.89190588 -0.03699686 -38.94594684 -0.01906076 -36 0 C-35.505 6.93 -35.505 6.93 -35 14 C-34.113125 12.7625 -33.22625 11.525 -32.3125 10.25 C-24.41686743 -0.20986838 -12.81497776 -4.27165925 0 0 Z " fill="#7E7E80" transform="translate(836,52)"/>
<path d="M0 0 C8.25 0 16.5 0 25 0 C25 34.98 25 69.96 25 106 C16.75 106 8.5 106 0 106 C0 71.02 0 36.04 0 0 Z " fill="#787879" transform="translate(633,52)"/>
<path d="M0 0 C3.43081498 3.02238463 5.24469911 5.67152163 5.90625 10.265625 C6.12161254 14.96770717 5.39173089 18.38552713 2.625 22.3125 C-2.36238292 26.26084481 -6.46566309 26.95061148 -12.78515625 26.69921875 C-17.63443378 25.97511848 -20.28565055 23.73992342 -23.1875 19.9375 C-25.27723953 15.31807578 -25.82213395 12.0020776 -24.1875 7.1875 C-22.26995555 2.66140409 -20.15829002 0.18340908 -15.6875 -2 C-9.92562954 -3.19585991 -5.26646811 -2.63323406 0 0 Z " fill="#7C7C7E" transform="translate(655.375,10.6875)"/>
<path d="M0 0 C0 2.31 0 4.62 0 7 C-0.99 7 -1.98 7 -3 7 C-6 3.66666667 -6 3.66666667 -6 1 C-3.92446352 0.4465236 -2.15634036 0 0 0 Z " fill="#868688" transform="translate(919,336)"/>
<path d="M0 0 C0 0.33 0 0.66 0 1 C-3.03428818 2.01142939 -6.06117206 3.01835162 -9.125 3.9375 C-11.89631382 4.96168119 -13.75911814 6.1038692 -16 8 C-14.54213659 4.15654191 -12.61034412 2.84920065 -9 1 C-5.8035914 -0.06546953 -3.34252724 -0.07427838 0 0 Z " fill="#9B9B9C" transform="translate(649,8)"/>
<path d="M0 0 C2.99324263 1.0975223 3.84610901 1.67682892 5.25 4.625 C5.4975 5.40875 5.745 6.1925 6 7 C1.32307692 5.52307692 1.32307692 5.52307692 -0.3125 2.875 C-0.539375 2.25625 -0.76625 1.6375 -1 1 C-0.67 0.67 -0.34 0.34 0 0 Z " fill="#89898B" transform="translate(1017,347)"/>
<path d="M0 0 C0.598125 0.474375 1.19625 0.94875 1.8125 1.4375 C4.00382924 3.16465744 4.00382924 3.16465744 7 4 C7 4.99 7 5.98 7 7 C1.25 5.125 1.25 5.125 -1 4 C-0.67 2.68 -0.34 1.36 0 0 Z " fill="#8A8A8C" transform="translate(473,287)"/>
<path d="M0 0 C0.33 0.66 0.66 1.32 1 2 C4.02934491 2.65772428 4.02934491 2.65772428 7 3 C6.01 4.485 6.01 4.485 5 6 C2.08482708 4.92598892 0.22189824 4.22189824 -2 2 C-1.34 2 -0.68 2 0 2 C0 1.34 0 0.68 0 0 Z " fill="#8B8B8D" transform="translate(815,351)"/>
<path d="M0 0 C0.99 0.33 1.98 0.66 3 1 C2.8125 3.375 2.8125 3.375 2 6 C-0.5625 7.3125 -0.5625 7.3125 -3 8 C-2.01 5.36 -1.02 2.72 0 0 Z " fill="#8E8E8F" transform="translate(1115,121)"/>
<path d="M0 0 C4.55384615 -0.36923077 4.55384615 -0.36923077 6.8125 1.5 C7.204375 1.995 7.59625 2.49 8 3 C7.01 3.99 6.02 4.98 5 6 C5 5.34 5 4.68 5 4 C2.525 3.01 2.525 3.01 0 2 C0 1.34 0 0.68 0 0 Z " fill="#868687" transform="translate(980,88)"/>
<path d="M0 0 C1.74627478 2.61941217 2.38722388 4.03824877 3 7 C1.35 6.67 -0.3 6.34 -2 6 C-1.34 4.02 -0.68 2.04 0 0 Z " fill="#8A8A8B" transform="translate(509,65)"/>
<path d="M0 0 C0.66 0.33 1.32 0.66 2 1 C-0.35380297 4.92300495 -2.64464931 5.83857315 -7 7 C-4.66666667 4.66666667 -2.33333333 2.33333333 0 0 Z " fill="#989899" transform="translate(461,217)"/>
<path d="M0 0 C0 3 0 3 -1 6 C-1.66 6 -2.32 6 -3 6 C-3 6.99 -3 7.98 -3 9 C-3.66 9 -4.32 9 -5 9 C-3.7508258 5.54074837 -2.32472205 2.85306797 0 0 Z " fill="#8B8B8D" transform="translate(757,212)"/>
<path d="M0 0 C0.99 0 1.98 0 3 0 C2.34 1.98 1.68 3.96 1 6 C0.34 6 -0.32 6 -1 6 C-0.67 4.02 -0.34 2.04 0 0 Z " fill="#858586" transform="translate(1042,76)"/>
<path d="" fill="#FCFBBA" transform="translate(0,0)"/>
<path d="" fill="#FCFBBA" transform="translate(0,0)"/>
</svg>
