<?xml version="1.0" encoding="UTF-8"?>
<svg version="1.1" xmlns="http://www.w3.org/2000/svg" width="3570" height="880">
<path d="M0 0 C28.75334384 1.15013375 28.75334384 1.15013375 41.91137695 2.10742188 C43.42577391 2.21463959 44.94019436 2.32152581 46.45463562 2.42811584 C50.47008544 2.71173048 54.48517968 3.00009204 58.50020242 3.28968239 C62.73679391 3.59459086 66.97366703 3.89554226 71.210495 4.19714355 C78.29458363 4.70205743 85.3784377 5.21016387 92.4621582 5.72021484 C100.64372049 6.30926868 108.82565814 6.89287785 117.00780517 7.47374868 C124.92474557 8.03593576 132.84139564 8.60211616 140.75792503 9.1700592 C144.11220166 9.41061679 147.46657617 9.6497364 150.8210392 9.88768005 C154.75395652 10.16682014 158.68660856 10.44943971 162.6190815 10.73476982 C164.06057251 10.83879235 165.50215138 10.94160539 166.94382095 11.04312325 C168.90970661 11.18175376 170.87525177 11.32518804 172.84077454 11.46887207 C173.94026586 11.54776924 175.03975718 11.62666641 176.17256641 11.70795441 C178.56461355 11.95502894 180.68575323 12.38853139 183 13 C183.00238835 14.28068171 183.00477671 15.56136341 183.00723743 16.88085365 C183.06467572 47.32490223 183.13746174 77.7688715 183.22898628 108.21283523 C183.24025359 111.96513201 183.25139218 115.71742916 183.26245117 119.46972656 C183.26465486 120.21669852 183.26685854 120.96367049 183.269129 121.73327796 C183.30444042 133.80651395 183.32933923 145.87974988 183.35034702 157.95301826 C183.37215824 170.35388308 183.40525886 182.75468125 183.44870156 195.15548933 C183.47512693 202.79904778 183.49288928 210.44252329 183.49934604 218.08612512 C183.505255 223.9607204 183.52691918 229.83519359 183.55427551 235.70973015 C183.56303095 238.10977178 183.56678352 240.509838 183.56500816 242.90989494 C183.55456559 263.55060591 184.56662909 283.272429 199.78125 299.04296875 C213.0108225 310.71201069 228.71181732 315.31470932 245.97157288 315.26069641 C247.27047799 315.26452196 248.56938311 315.26834751 249.90764898 315.27228898 C253.49774765 315.28254587 257.08774619 315.28039303 260.67785299 315.27610838 C264.55602867 315.27363683 268.43418052 315.28266086 272.31234741 315.29014587 C279.90564367 315.30288477 287.49890456 315.30468743 295.0922097 315.30234561 C301.26847723 315.30056073 307.44473404 315.30231576 313.62100029 315.30657005 C314.50092576 315.30716524 315.38085124 315.30776043 316.28744112 315.30837366 C318.07522588 315.30958545 319.86301064 315.31079959 321.65079539 315.31201603 C338.41264999 315.32288928 355.17448447 315.3207306 371.93634021 315.31463119 C387.248158 315.30946704 402.55991208 315.32070459 417.87171728 315.33972941 C433.61199173 315.3591358 449.35223608 315.36735859 465.09252256 315.36360615 C473.92206031 315.36169774 482.7515439 315.36414614 491.58107185 315.37832069 C499.10132607 315.39027151 506.62149282 315.3915984 514.14174832 315.37953053 C517.97349823 315.37366656 521.80508846 315.37247284 525.63682747 315.38453293 C529.80452365 315.397497 533.97184443 315.38686786 538.13954163 315.3742218 C539.33160455 315.38159609 540.52366748 315.38897037 541.75185353 315.39656812 C553.01061576 315.32515343 564.5825825 313.9432225 574.625 308.5625 C575.73101563 307.98628906 576.83703125 307.41007812 577.9765625 306.81640625 C591.51280086 298.68417003 598.57151935 284.42333634 602.55354309 269.61006165 C604.73800666 259.93686926 604.44071432 250.19930429 604.43237305 240.32885742 C604.44140304 238.15947414 604.45173328 235.99009595 604.46325684 233.82072449 C604.49070747 227.96629544 604.5000951 222.11196352 604.50611091 216.25747848 C604.51552575 210.12622885 604.54173159 203.99505089 604.56611633 197.86384583 C604.60969963 186.26910536 604.63829675 174.67437888 604.66143972 163.07958156 C604.68853524 149.87271842 604.73244404 136.66592768 604.77772844 123.45911634 C604.87045769 96.30611687 604.94219201 69.1530947 605 42 C615.98721536 41.88017386 626.87484921 42.21698615 637.83935547 42.90209961 C639.45418934 42.99939911 641.06904819 43.09628492 642.68392944 43.1927948 C647.01383811 43.4528298 651.34335677 43.71887789 655.67281103 43.98635936 C660.22001602 44.26648541 664.76751653 44.54173883 669.31497192 44.81776428 C676.9320381 45.2808974 684.54885126 45.74802717 692.16552734 46.2175293 C700.97460734 46.76047714 709.7840761 47.29673392 718.59377372 47.82955927 C727.08789971 48.34347296 735.58171903 48.86229742 744.07541275 49.38330269 C747.68532711 49.60463403 751.29534313 49.82418771 754.90545273 50.04231071 C759.14276658 50.29853402 763.37979654 50.55902591 767.616642 50.82287788 C769.17345216 50.91912607 770.7303559 51.01387381 772.28735352 51.10704041 C774.40553611 51.23403008 776.52331773 51.36635962 778.64108276 51.50010681 C779.82785048 51.57292846 781.01461819 51.6457501 782.23734856 51.72077847 C785 52 785 52 787 53 C787.74644779 84.50646917 788.20328387 116.00420852 788.36918616 147.5189321 C788.38707329 150.89105693 788.40588109 154.26317554 788.42493629 157.63529396 C788.49164974 169.48251077 788.55393774 181.32974244 788.61254883 193.17700195 C788.66672447 204.09857426 788.73193785 215.02004549 788.80188721 225.94152707 C788.86219739 235.44686847 788.91409156 244.95223355 788.95981437 254.4576562 C788.98702796 260.08002443 789.01747419 265.70232374 789.05682945 271.3246212 C789.49620217 335.31996536 789.49620217 335.31996536 783 361 C782.82098145 361.72541992 782.64196289 362.45083984 782.45751953 363.19824219 C776.48734002 386.85527823 764.9574078 409.5501224 749 428 C748.31719971 428.79229004 748.31719971 428.79229004 747.62060547 429.60058594 C732.21499825 447.29924802 713.87409165 461.33156109 693 472 C692.26700684 472.37608398 691.53401367 472.75216797 690.77880859 473.13964844 C672.0940396 482.61104398 652.38111863 489.21073525 632 494 C631.3999941 494.16275944 630.7999882 494.32551889 630.18180031 494.49321043 C621.42834105 496.59937726 612.55392308 496.28433014 603.61378479 496.26742554 C601.73778458 496.27116528 599.86178592 496.2757681 597.98578972 496.28115618 C592.84592925 496.2933619 587.706134 496.29312856 582.56626236 496.29076743 C577.01659213 496.29035864 571.46694263 496.30140451 565.9172821 496.31088257 C555.04895467 496.32748125 544.18064892 496.33299164 533.31230987 496.33410732 C524.47355824 496.33505853 515.63481375 496.33917244 506.79606438 496.34550858 C485.79673223 496.3602549 464.79740395 496.37255859 443.79806614 496.37151146 C442.79134869 496.37146472 442.79134869 496.37146472 441.76429351 496.37141704 C438.36296659 496.37125084 434.96163967 496.37105276 431.56031276 496.37084763 C430.88484842 496.37080774 430.20938408 496.37076785 429.51345112 496.37072675 C428.14749673 496.37064587 426.78154233 496.37056228 425.41558794 496.37047596 C404.17978186 496.36925139 382.94403974 496.38424829 361.70825195 496.41162109 C337.82549769 496.44239346 313.94278509 496.45952509 290.06000561 496.45769465 C277.4241606 496.45703175 264.7883877 496.46247997 252.15255928 496.48405075 C241.39099734 496.50230457 230.62954016 496.50657557 219.8679694 496.4930319 C214.38307602 496.4865229 208.89838338 496.48630996 203.41350937 496.5037384 C198.38025842 496.5195664 193.34736576 496.51650705 188.31412303 496.49917014 C186.50521131 496.49612147 184.69627219 496.49965087 182.88739283 496.51089029 C166.08181136 496.60829187 150.50983456 493.64765988 134.625 488.125 C133.60317627 487.77550293 132.58135254 487.42600586 131.52856445 487.06591797 C124.08887096 484.47752831 117.00966561 481.61027302 110 478 C108.53270578 477.27573021 107.06524446 476.55179888 105.59765625 475.828125 C78.48365818 462.23654531 54.86094811 442.54191546 37 418 C36.58685547 417.43651855 36.17371094 416.87303711 35.74804688 416.29248047 C16.74695426 390.04176337 1.34580121 355.87888955 -0.5625 323.1875 C-0.62727539 322.14819336 -0.62727539 322.14819336 -0.69335938 321.08789062 C-0.79861453 319.39211314 -0.89972863 317.69607948 -1 316 C-1.09498779 316.62753174 -1.18997559 317.25506348 -1.2878418 317.90161133 C-8.04129489 361.90526802 -23.72090247 400.65855117 -53.9765625 433.75390625 C-55.57411928 435.52725596 -57.08383492 437.31683982 -58.5625 439.1875 C-61.74418895 442.85867955 -65.29141353 445.87436859 -69 449 C-69.85335937 449.7528125 -70.70671875 450.505625 -71.5859375 451.28125 C-97.45992395 473.68174238 -138.09493842 496.12927044 -173.1673978 496.1241985 C-175.04411132 496.12756944 -175.04411132 496.12756944 -176.95873824 496.13100848 C-178.34724723 496.12844281 -179.73575605 496.12578589 -181.12426472 496.12304783 C-182.60528768 496.12378742 -184.08631047 496.12496595 -185.56733277 496.12654433 C-189.65614576 496.12962043 -193.74493399 496.12643235 -197.83374514 496.12226619 C-202.27477094 496.11883834 -206.71579418 496.12120158 -211.15682048 496.12284368 C-218.9464694 496.12492006 -226.7361107 496.12326915 -234.52575874 496.11920547 C-246.10874882 496.11317965 -257.69173408 496.11286881 -269.27472544 496.11374746 C-288.75752627 496.11506258 -308.24032371 496.11171534 -327.72312355 496.10573006 C-347.01935658 496.09981726 -366.3155882 496.09596496 -385.61182213 496.09487724 C-387.41009153 496.09477413 -387.41009153 496.09477413 -389.2446896 496.09466894 C-395.33278366 496.09433062 -401.42087771 496.09402923 -407.50897177 496.09374207 C-450.65433826 496.09164049 -493.79970291 496.08489988 -536.94506836 496.07543945 C-578.86564118 496.06625818 -620.78621349 496.05917302 -662.70678711 496.05493164 C-664.64433821 496.05473435 -664.64433821 496.05473435 -666.62103175 496.05453308 C-679.59257459 496.05321458 -692.56411742 496.05193876 -705.53566026 496.05069422 C-731.9612481 496.04815786 -758.38683591 496.04533661 -784.81242371 496.04234314 C-786.02748517 496.04220585 -787.24254664 496.04206856 -788.49442816 496.04192711 C-869.66295287 496.0327232 -950.83147656 496.01687763 -1032 496 C-1032.02339389 457.77013742 -1032.04075499 419.540276 -1032.05106533 381.3104076 C-1032.05231459 376.69562654 -1032.05360905 372.08084549 -1032.05493164 367.46606445 C-1032.05519395 366.54815198 -1032.05545626 365.63023951 -1032.05572652 364.68451151 C-1032.05944632 351.99133364 -1032.06555228 339.29815906 -1032.07373433 326.60498331 C-1032.08792444 304.58691641 -1032.09695213 282.56885298 -1032.09765625 260.55078125 C-1032.09769482 259.67921066 -1032.09773339 258.80764007 -1032.09777313 257.90965825 C-1032.10005051 180.9370942 -1031.64109872 103.96966289 -1031 27 C-1026.45417258 27.26294222 -1021.90842214 27.5271704 -1017.36273146 27.7924661 C-1015.82430563 27.8820849 -1014.28586114 27.97138408 -1012.74739599 28.06032532 C-1002.09735497 28.67631146 -991.45465132 29.36157418 -980.81445312 30.12915039 C-979.98179696 30.18912297 -979.14914079 30.24909556 -978.29125261 30.31088549 C-976.41705257 30.4472362 -974.54304972 30.58629031 -972.66906738 30.7256012 C-971.28744148 30.82803897 -969.90581402 30.93045582 -968.52418518 31.03285408 C-967.82966059 31.08443082 -967.13513599 31.13600756 -966.4195652 31.18914723 C-962.73031484 31.46262396 -959.04086267 31.73335503 -955.35144043 32.00450134 C-949.19380238 32.45743316 -943.03630666 32.91225773 -936.87890625 33.3684082 C-929.79286862 33.89333825 -922.70663343 34.41553304 -915.62028551 34.93625647 C-908.72063468 35.44328989 -901.8210956 35.95182733 -894.9216156 36.46117973 C-892.01601658 36.67568265 -889.11038542 36.88974216 -886.20472717 37.10344124 C-882.16306017 37.40080333 -878.12156208 37.70040438 -874.08007812 38.00024414 C-872.89774597 38.08701416 -871.71541382 38.17378418 -870.49725342 38.26318359 C-869.38831726 38.34580948 -868.2793811 38.42843536 -867.13684082 38.51356506 C-866.18730782 38.58378907 -865.23777481 38.65401308 -864.25946808 38.72636509 C-859.83486675 39.09781385 -855.41812996 39.558187 -851 40 C-851 130.42 -851 220.84 -851 314 C-801.50062443 313.96373471 -801.50062443 313.96373471 -752.00125122 313.92448425 C-750.74986658 313.92344546 -750.74986658 313.92344546 -749.47320143 313.92238568 C-721.3922762 313.89902178 -693.31135654 313.87155909 -665.23043823 313.84101868 C-664.31407966 313.84002311 -663.39772109 313.83902754 -662.45359408 313.83800181 C-642.5390604 313.8163437 -622.62452751 313.79402104 -602.70999534 313.77101372 C-592.94403349 313.75973512 -583.17807148 313.74860338 -573.41210938 313.73754883 C-572.44027437 313.73644626 -571.46843937 313.7353437 -570.46715482 313.73420772 C-538.96237864 313.69853379 -507.45760352 313.67255935 -475.95281439 313.65161031 C-443.57984386 313.63003279 -411.20689718 313.5986789 -378.83394855 313.55500887 C-374.26238545 313.54884655 -369.69082221 313.54279609 -365.11925888 313.53681374 C-364.21950215 313.53563285 -363.31974541 313.53445197 -362.39272333 313.53323531 C-347.90417847 313.51450764 -333.41564507 313.5060979 -318.92708959 313.50153876 C-304.36419721 313.49673632 -289.80134859 313.48108254 -275.23847969 313.45433434 C-266.58448379 313.43876946 -257.93057421 313.43154258 -249.27656509 313.43623071 C-243.49527124 313.43854275 -237.71405897 313.43000808 -231.93279082 313.41267589 C-228.63893383 313.40311079 -225.34529232 313.39989244 -222.05142285 313.40660437 C-218.49989145 313.41310517 -214.94887505 313.40122825 -211.39738655 313.38476086 C-210.37922781 313.39103755 -209.36106906 313.39731425 -208.31205702 313.40378115 C-197.82342093 313.31405192 -188.08327242 310.75939449 -180.3125 303.40234375 C-173.22567745 295.62455601 -169.4593357 286.02095585 -169.75 275.484375 C-170.75461438 265.5010196 -173.62773483 255.24558453 -181.625 248.6875 C-188.90449556 243.82102241 -196.36209796 241.88707259 -205.00964355 241.00843811 C-205.79099529 240.92558062 -206.57234702 240.84272312 -207.37737608 240.7573548 C-217.22908568 239.73475991 -227.09989592 238.9270695 -236.97070312 238.11499023 C-239.13231726 237.935259 -241.29391267 237.75530242 -243.45549107 237.57514191 C-249.32899413 237.08622037 -255.20274625 236.60035286 -261.07654691 236.11502147 C-267.38845699 235.59294341 -273.70012952 235.06800853 -280.01182556 234.54335022 C-288.07121705 233.87363829 -296.13063823 233.20429074 -304.19017696 232.53635311 C-304.87617279 232.47950089 -305.56216861 232.42264868 -306.26895218 232.36407367 C-307.66193149 232.24863164 -309.05491081 232.13318965 -310.44789013 232.01774769 C-326.73206876 230.66814687 -343.01576467 229.31279683 -359.29929006 227.95533919 C-408.16063691 223.88209539 -457.02203825 219.810056 -505.88929939 215.80827808 C-524.8110138 214.2586818 -543.73192483 212.6995491 -562.65221977 211.13271618 C-574.6544904 210.13931788 -586.6575038 209.15602141 -598.6616773 208.1858837 C-606.81275742 207.52630249 -614.96282069 206.85502137 -623.11218554 206.17457753 C-627.75453068 205.78734082 -632.39713239 205.40517613 -637.04109001 205.03773689 C-655.02287891 203.61182952 -672.62709764 202.19856146 -690 197 C-690.66411203 196.80760522 -691.32822407 196.61521044 -692.01246071 196.41698551 C-695.8540669 195.3039955 -699.65076202 194.09982438 -703.4375 192.8125 C-704.56655762 192.43085693 -705.69561523 192.04921387 -706.85888672 191.65600586 C-756.67190877 174.40387879 -795.5907362 142.2334219 -818.73339844 94.6953125 C-825.88864806 79.46902957 -835 58.94267667 -835 42 C-822.90964265 41.63731005 -810.94873066 42.74678672 -798.91064453 43.73388672 C-796.56634749 43.92225791 -794.22201363 44.11017134 -791.87764645 44.2976675 C-786.14476707 44.75734676 -780.41229036 45.22181784 -774.67996583 45.68836108 C-767.8539002 46.24364324 -761.02734808 46.79283458 -754.20077128 47.34179059 C-741.68715082 48.34823591 -729.17392184 49.35947044 -716.66091919 50.37356567 C-704.27330195 51.37748913 -691.88552575 52.37941298 -679.49752808 53.37863159 C-678.72525518 53.44092446 -677.95298229 53.50321734 -677.15730719 53.56739787 C-673.24382476 53.8830548 -669.33033921 54.1986729 -665.41685212 54.51427186 C-657.53706433 55.14974108 -649.65729879 55.78548607 -641.77754211 56.42134094 C-640.99483124 56.4845011 -640.21212037 56.54766125 -639.40569099 56.61273535 C-627.46093397 57.57665905 -615.51628408 58.54190315 -603.57170105 59.50798035 C-602.78298947 59.57177032 -601.99427789 59.63556029 -601.18166596 59.70128328 C-598.00763118 59.95799711 -594.83359685 60.21471656 -591.65956276 60.47143893 C-558.77734195 63.13100613 -525.89430673 65.78021275 -493.01055717 68.42081833 C-439.04469095 72.7543724 -385.08066814 77.11023508 -331.11950684 81.50200653 C-327.04326687 81.83375893 -322.96701339 82.16534443 -318.89074707 82.49677277 C-296.05268786 84.35371683 -273.2152176 86.21742109 -250.37995052 88.10842991 C-248.6495307 88.25172327 -246.91911059 88.39501319 -245.18869019 88.53829956 C-243.92001774 88.64336068 -243.92001774 88.64336068 -242.62571555 88.75054425 C-236.83789305 89.22937906 -231.04968304 89.70330819 -225.26126099 90.17483521 C-218.40613319 90.73332929 -211.55162889 91.29882935 -204.69784844 91.87363178 C-201.28542572 92.15967109 -197.87281776 92.44177703 -194.45950317 92.71708107 C-136.52102839 97.39966233 -89.58310395 115.41662823 -50.55175781 160.17089844 C-34.17197285 179.47822206 -20.693069 201.17308768 -10.1875 224.1875 C-9.83864746 224.94587158 -9.48979492 225.70424316 -9.13037109 226.4855957 C-5.8439005 233.8844603 -3.5974622 241.2076134 -1 249 C-0.67 166.83 -0.34 84.66 0 0 Z " fill="#003993" transform="translate(1775,286)"/>
<path d="M0 0 C12.43650636 -0.18069586 24.75871573 0.38597775 37.16894531 1.13891602 C39.2731739 1.26307792 41.3774266 1.38683192 43.4817009 1.51021671 C49.22074921 1.84795801 54.95942926 2.19162137 60.69805908 2.53639078 C66.88949387 2.90738483 73.08124412 3.27304614 79.27294922 3.63949585 C91.37620822 4.3567705 103.479135 5.07948344 115.58194399 5.80430245 C125.4582961 6.39574343 135.33476429 6.9852125 145.21130371 7.57351685 C216.18391643 11.80167016 287.15371224 16.07710408 387.76627946 22.23348814 C395.29965199 22.69546148 402.83306365 23.15678864 410.36651444 23.61748391 C464.36264806 26.91981988 518.35270267 30.30840803 572.33290966 33.86164122 C576.89285095 34.16175267 581.4528682 34.46068887 586.01291656 34.75916862 C631.9157866 37.76709712 631.9157866 37.76709712 652.54427195 39.36810291 C654.0373249 39.48338478 655.53056433 39.5962877 657.02401495 39.70629799 C670.93206393 40.7385004 684.94336597 42.57268646 698.4375 46.1875 C699.59608521 46.4961499 699.59608521 46.4961499 700.77807617 46.81103516 C709.87200494 49.35891501 718.42897551 53.07560993 727 57 C728.20011719 57.53238281 729.40023437 58.06476563 730.63671875 58.61328125 C756.84787627 70.88168599 782.05197713 92.63227149 799 116 C799.76054687 117.01707031 800.52109375 118.03414063 801.3046875 119.08203125 C836.33606194 166.45832111 847.44491942 217.88812144 839.1015625 275.91796875 C832.40886169 315.60709221 813.32216056 351.94206788 787 382 C785.93635074 383.29072045 784.87362367 384.58220242 783.8125 385.875 C781.16225015 388.95686197 778.20513693 391.5764226 775.10546875 394.19921875 C773.72639181 395.37872611 772.37309214 396.58921801 771.05078125 397.83203125 C751.62535271 415.99943204 726.82547983 427.84783644 701.6875 435.75 C700.84888428 436.0195752 700.01026855 436.28915039 699.14624023 436.56689453 C679.42545207 442.49903042 660.04988887 443.5762972 639.57693481 443.48101807 C636.75719998 443.4805325 633.937484 443.48610669 631.11775482 443.49137473 C625.02496947 443.49960005 618.93234168 443.49321535 612.83957481 443.4768219 C603.7801244 443.45251455 594.72077169 443.45149406 585.6612946 443.45498985 C570.41613544 443.46022558 555.17104602 443.44695578 539.92590714 443.42292023 C524.84430724 443.39920378 509.76273642 443.38384671 494.68111801 443.37950897 C493.27139222 443.37909653 493.27139222 443.37909653 491.83318713 443.37867576 C487.05979375 443.37732232 482.28640034 443.37611683 477.51300691 443.37496826 C443.75539633 443.36657991 409.99782363 443.33966771 376.24023438 443.30175781 C343.45735881 443.26498518 310.67449364 443.23666785 277.89160156 443.21972656 C276.37424598 443.21893741 276.37424598 443.21893741 274.82623675 443.21813231 C264.66707991 443.21285796 254.507923 443.20775474 244.34876601 443.20277687 C223.65575841 443.19263364 202.96275149 443.18134863 182.26974487 443.16937256 C180.84278497 443.16854882 180.84278497 443.16854882 179.3869976 443.16770844 C115.92464932 443.13094277 52.46232205 443.06756634 -11 443 C-11.00431291 432.67339549 -11.00754533 422.3467912 -11.00951239 412.02018597 C-11.01045795 407.22169399 -11.01173368 402.42320265 -11.01385021 397.62471104 C-11.02588664 369.57443333 -10.95141972 341.5284924 -10.62768555 313.47973633 C-10.56972705 308.43713269 -10.5206544 303.39447661 -10.47328281 298.35176373 C-10.43458297 294.33268934 -10.39151183 290.31367126 -10.34705925 286.29465675 C-10.32693754 284.42681126 -10.30818177 282.55895045 -10.29092598 280.69107628 C-10.26690368 278.15554842 -10.23692849 275.6201599 -10.20532227 273.0847168 C-10.1995668 272.34836502 -10.19381134 271.61201324 -10.18788147 270.85334778 C-10.13017116 266.79931742 -9.70677119 262.98643959 -9 259 C-8.16182882 258.99939973 -8.16182882 258.99939973 -7.30672489 258.99878732 C53.53301755 258.95510978 114.37275659 258.90773033 175.21247864 258.84101868 C176.12137435 258.84002311 177.03027006 258.83902754 177.96670806 258.83800181 C197.71977193 258.81634294 217.47283499 258.79402022 237.22589732 258.77101372 C246.91288649 258.75973527 256.59987581 258.7486035 266.28686523 258.73754883 C267.25083375 258.73644626 268.21480226 258.7353437 269.20798194 258.73420772 C300.4492797 258.69854337 331.6905764 258.6725639 362.9318872 258.65161031 C395.03814882 258.63002543 427.14438642 258.59866282 459.25062598 258.55500887 C463.78609033 258.54884668 468.32155483 258.5427962 472.85701942 258.53681374 C473.74965814 258.53563285 474.64229685 258.53445197 475.56198522 258.53323531 C489.92719963 258.5145186 504.29240248 258.50609987 518.65762759 258.50153876 C533.10183004 258.49673257 547.54598842 258.48106153 561.99016722 258.45433434 C570.57021359 258.43878727 579.15017301 258.43153653 587.73023268 258.43623071 C593.46606306 258.43854698 599.20181144 258.4299786 604.93761599 258.41267589 C608.20304574 258.40313351 611.46825957 258.39987387 614.73370173 258.40660437 C636.28038116 258.67888089 636.28038116 258.67888089 656.5625 252.125 C657.51253906 251.65320313 658.46257813 251.18140625 659.44140625 250.6953125 C665.77623216 246.49788587 668.61178925 239.60934795 671.25 232.75 C673.33321615 222.33391923 672.23138318 212.11654673 667.25 202.6875 C657.86514531 191.47781245 646.42783515 188.74110976 632.30713844 187.39897346 C630.24408536 187.22563185 628.1805353 187.05813628 626.11660767 186.89553833 C624.39332558 186.7530855 624.39332558 186.7530855 622.63522971 186.60775483 C618.80230299 186.29216491 614.968797 185.9842744 611.13525391 185.67626953 C608.36599865 185.45027863 605.59688583 185.22256424 602.82777023 184.99486923 C596.8370686 184.50307202 590.84607348 184.0149958 584.85486984 183.5293541 C575.18478285 182.74534823 565.51538288 181.95306246 555.84609985 181.15921021 C554.17632239 181.02214696 552.5065448 180.88508533 550.83676708 180.7480253 C548.29997255 180.53979341 545.76317887 180.33155134 543.22638824 180.12327205 C538.03127787 179.6967769 532.83612049 179.27085961 527.64092617 178.8453882 C489.01811189 175.68221832 450.40085273 172.45341561 411.78442323 169.21335113 C409.14825262 168.99217199 406.51207923 168.77102604 403.87590504 168.54988956 C388.0251356 167.22021862 372.17441064 165.89001843 356.32381821 164.55823898 C352.79563174 164.26180382 349.26744504 163.96537143 345.73925781 163.66894531 C344.86484796 163.59547966 343.9904381 163.522014 343.08953097 163.44632211 C328.57593318 162.22701265 314.06206806 161.01091266 299.54810719 159.79593347 C284.3230761 158.52137751 269.09827863 157.24406048 253.87370741 155.96402276 C245.44991671 155.25584221 237.02603361 154.54880808 228.60187912 153.84496689 C221.53855439 153.25481884 214.47544511 152.66217027 207.41260408 152.06626002 C203.83326877 151.76433734 200.2538477 151.46355992 196.67414284 151.16604805 C159.61463231 148.08388284 159.61463231 148.08388284 147.8125 144.8125 C147.02625244 144.59891846 146.24000488 144.38533691 145.42993164 144.1652832 C113.59806468 135.28585112 85.37696593 121.52004956 61 99 C59.43770907 97.62476245 57.87520427 96.24976784 56.3125 94.875 C40.47863916 80.537252 27.94695476 65.99051459 18 47 C17.64583008 46.3296875 17.29166016 45.659375 16.92675781 44.96875 C0 12.45981355 0 12.45981355 0 0 Z " fill="#003993" transform="translate(2574,339)"/>
<path d="M0 0 C1.06730653 -0.00115384 2.13461305 -0.00230769 3.2342622 -0.0034965 C6.81077959 -0.00614344 10.38725197 -0.00165682 13.96376705 0.00279331 C16.55365969 0.00235722 19.14355228 0.00148161 21.73344463 0.00020415 C27.3642846 -0.00186572 32.99511398 -0.00023242 38.62595272 0.00384235 C46.99876595 0.00988451 55.37157252 0.01017749 63.74438753 0.00930037 C77.82969829 0.00798725 91.91500436 0.0113249 106.00031376 0.01731777 C119.94551841 0.02323581 133.89072111 0.02708393 147.83592701 0.02817059 C149.13677865 0.0282737 149.13677865 0.0282737 150.46391012 0.02837889 C154.86819761 0.02871722 159.2724851 0.02901861 163.67677259 0.02930576 C194.86821816 0.03140589 226.05966118 0.03814246 257.25110531 0.04760838 C287.55221194 0.05679347 317.85331787 0.06387676 348.15442562 0.06811619 C349.08852089 0.06824771 350.02261615 0.06837924 350.98501733 0.06851475 C360.3656291 0.06983328 369.74624088 0.07110909 379.12685266 0.07235361 C398.23605487 0.07488979 417.34525704 0.07771104 436.45445919 0.08070469 C437.33305965 0.08084198 438.2116601 0.08097927 439.11688482 0.08112072 C466.04570426 0.08534361 492.97452328 0.09077473 519.90334225 0.0973978 C520.66784628 0.09758536 521.43235032 0.09777292 522.22002114 0.09796616 C553.18537947 0.1055813 584.15073746 0.11447532 615.11609554 0.12304783 C615.11609554 61.17304783 615.11609554 122.22304783 615.11609554 185.12304783 C186.77609554 185.12304783 -241.56390446 185.12304783 -682.88390446 185.12304783 C-679.49600051 178.34723993 -676.09152126 171.9871354 -672.07140446 165.62304783 C-670.9146924 163.77307624 -669.75846465 161.92280176 -668.60265446 160.07226658 C-667.99679508 159.10466404 -667.39093571 158.1370615 -666.76671696 157.14013767 C-663.50963447 151.92086571 -660.29220106 146.67725955 -657.07140446 141.43554783 C-655.71334099 139.22851077 -654.35526799 137.02147957 -652.99718571 134.81445408 C-650.26151729 130.36631311 -647.53022902 125.91552118 -644.80187321 121.46289158 C-637.36210594 109.33059617 -629.8421042 97.2576812 -622.16906071 85.27148533 C-620.07378714 81.99697152 -617.99674458 78.71251157 -615.94249821 75.41211033 C-575.53428269 10.54610999 -575.53428269 10.54610999 -541.60563248 2.58871758 C-533.93956217 1.04569462 -526.53197529 0.84711222 -518.72931767 0.8825388 C-517.32564074 0.88166498 -515.92196414 0.87991076 -514.51828927 0.87736046 C-510.68936766 0.87291757 -506.86055929 0.88084817 -503.03165209 0.89091659 C-498.892066 0.89959321 -494.75248574 0.89662796 -490.6128931 0.89511204 C-483.45013078 0.89406584 -476.28740503 0.90031465 -469.12465191 0.91158772 C-458.76865345 0.9278758 -448.41267258 0.9330541 -438.0566627 0.9355637 C-421.25272872 0.93993562 -404.4488142 0.95323105 -387.64489079 0.97216892 C-371.32620686 0.99054076 -355.00752826 1.00466794 -338.6888361 1.01318455 C-337.67186805 1.01372054 -336.6549 1.01425654 -335.60711473 1.01480877 C-327.65317497 1.01896788 -319.69923509 1.02288164 -311.74529517 1.0267179 C-272.79148039 1.04556848 -233.83771438 1.08580907 -194.88390446 1.12304783 C-194.55390446 53.92304783 -194.22390446 106.72304783 -193.88390446 161.12304783 C-190.91390446 152.21304783 -187.94390446 143.30304783 -184.88390446 134.12304783 C-174.3835493 108.65968658 -163.17893074 86.85682667 -143.88390446 67.12304783 C-143.15397282 66.37265232 -142.42404118 65.62225681 -141.67199039 64.84912205 C-123.6281364 46.35914907 -123.6281364 46.35914907 -113.88390446 39.12304783 C-112.32929508 37.93582127 -112.32929508 37.93582127 -110.74327946 36.72461033 C-79.23903573 13.10328224 -39.36963505 -0.1054624 0 0 Z " fill="#003993" transform="translate(1126.8839044570923,87.87695217132568)"/>
<path d="M0 0 C2.77330242 0.00024229 5.54660001 -0.00254186 8.31990099 -0.00517833 C14.32979508 -0.0093037 20.33964936 -0.00607632 26.3495388 0.00209808 C35.28587505 0.01421896 44.22218646 0.01476499 53.15852943 0.01301411 C68.19431184 0.01039231 83.23007661 0.01704627 98.26585388 0.02904892 C113.14586983 0.04089669 128.02587842 0.04858358 142.90589905 0.05075455 C143.83226521 0.05089203 144.75863137 0.05102951 145.71306923 0.05117115 C150.41791594 0.05184785 155.12276264 0.0524506 159.82760936 0.0530249 C193.12266742 0.05722194 226.41771589 0.07068608 259.71276855 0.08963013 C292.05163522 0.10800884 324.39049927 0.12217124 356.72937012 0.13064575 C358.2254986 0.13104033 358.2254986 0.13104033 359.75185189 0.13144288 C369.76865251 0.13408 379.78545314 0.13663161 389.80225379 0.1391206 C410.2063041 0.14419256 430.61035424 0.14983507 451.0144043 0.15582275 C451.95247975 0.15609733 452.8905552 0.15637191 453.85705718 0.15665481 C482.60099499 0.16509834 511.34493119 0.17595931 540.08886719 0.18920898 C540.90468812 0.1895841 541.72050906 0.18995922 542.56105184 0.1903457 C575.60006883 0.20557378 608.63908455 0.22336331 641.67810059 0.24050903 C641.67810059 61.29050903 641.67810059 122.34050903 641.67810059 185.24050903 C359.85810059 185.24050903 78.03810059 185.24050903 -212.32189941 185.24050903 C-212.32189941 165.61427635 -212.32189941 165.61427635 -208.94689941 156.24050903 C-208.58894287 155.19145386 -208.23098633 154.14239868 -207.86218262 153.06155396 C-206.72045276 149.77255873 -205.53143538 146.50513395 -204.32189941 143.24050903 C-203.73626221 141.65230347 -203.73626221 141.65230347 -203.13879395 140.03201294 C-188.31994104 100.3871656 -166.63763328 66.89115085 -132.32189941 41.24050903 C-131.15389273 40.34342301 -129.98592681 39.4462839 -128.81799316 38.54910278 C-106.72167 21.77035272 -81.73109399 10.50108483 -54.69689941 4.49050903 C-53.35740234 4.1922522 -53.35740234 4.1922522 -51.99084473 3.88796997 C-34.61401495 0.2346372 -17.69491293 -0.04151243 0 0 Z " fill="#003993" transform="translate(2775.3218994140625,87.75949096679688)"/>
<path d="M0 0 C20.17869716 1.59445092 40.28652983 3.80887826 60.40619922 6.00650907 C65.22414967 6.53225721 70.04239913 7.05525169 74.86061096 7.57859802 C82.92849301 8.45530286 90.99617638 9.33381604 99.0637207 10.21362305 C109.40327999 11.3411979 119.74315207 12.46587734 130.08312893 13.58961582 C139.01664475 14.56050863 147.95003585 15.53254708 156.88339734 16.50485873 C159.73821383 16.81554868 162.59304375 17.12611508 165.44787407 17.43667793 C169.93053229 17.92441294 174.41311244 18.41285963 178.8956337 18.90185165 C180.53546492 19.08064599 182.17531929 19.25922818 183.8151989 19.4375782 C186.05988402 19.68175021 188.30448077 19.92671959 190.54905701 20.17189026 C192.42895152 20.37677991 192.42895152 20.37677991 194.34682369 20.58580875 C198.23566074 21.02671884 202.11738388 21.50758336 206 22 C204.30552475 26.98433363 201.51242816 31.16301434 198.6875 35.5625 C197.89061768 36.81389771 197.89061768 36.81389771 197.07763672 38.09057617 C192.76114997 44.85349341 188.38705636 51.57898233 184.00317383 58.29833984 C179.31082986 65.49749522 174.69533242 72.74402963 170.09033203 79.99926758 C166.58627366 85.51672102 163.05962332 91.01824583 159.5 96.5 C155.40299519 102.81160201 151.34833818 109.14911717 147.3125 115.5 C137.29429504 131.26469506 127.24983095 147.01265669 117.08129883 162.6809082 C112.74245824 169.37666984 108.46848574 176.11338419 104.19091797 182.84838867 C100.22018575 189.09563782 96.21481961 195.31901668 92.18359375 201.52734375 C88.42132253 207.32979703 84.70755945 213.16247017 81 219 C76.90036461 225.45419301 72.78754292 231.89868174 68.625 238.3125 C61.36131176 249.50612341 54.1870517 260.75708772 47 272 C44.22969345 276.33367044 41.45897201 280.66707478 38.6875 285 C38.0179126 286.04687988 37.3483252 287.09375977 36.65844727 288.17236328 C32.87389843 294.08522373 29.07273652 299.98676952 25.25 305.875 C20.93479725 312.52194045 16.69724085 319.21576586 12.47509766 325.92211914 C8.78947488 331.76907858 5.05033118 337.57904559 1.28515625 343.375 C-2.51200887 349.22761062 -6.26004047 355.11070242 -10 361 C-14.57162854 368.19818531 -19.17257496 375.37556797 -23.81640625 382.52734375 C-27.57867747 388.32979703 -31.29244055 394.16247017 -35 400 C-39.52671043 407.12655153 -44.07900117 414.23488019 -48.67578125 421.31640625 C-52.81126182 427.69343716 -56.90638839 434.09603306 -61 440.5 C-65.89771944 448.16131037 -70.80791247 455.81375589 -75.75976562 463.44018555 C-78.56597603 467.76782899 -81.35062555 472.1089211 -84.125 476.45703125 C-84.48557495 477.02183197 -84.8461499 477.58663269 -85.21765137 478.16854858 C-87.01624759 480.9860991 -88.81313815 483.80469862 -90.60742188 486.625 C-91.26291016 487.65238281 -91.91839844 488.67976563 -92.59375 489.73828125 C-93.17833984 490.65649658 -93.76292969 491.57471191 -94.36523438 492.52075195 C-94.90470703 493.33890381 -95.44417969 494.15705566 -96 495 C-96.52704639 496.05182024 -96.52704639 496.05182024 -97.06474018 497.12488937 C-100.11408651 500.07945994 -103.58240641 499.5370234 -107.59892273 499.48101807 C-108.48761687 499.48443577 -109.376311 499.48785347 -110.29193527 499.49137473 C-113.28178018 499.49798445 -116.27073529 499.47592653 -119.26049805 499.45410156 C-121.39884419 499.45297375 -123.53719187 499.45360564 -125.67553711 499.45587158 C-131.4914245 499.45702225 -137.3069839 499.43345571 -143.12279487 499.40557575 C-149.19665868 499.38062089 -155.27052948 499.37822477 -161.34443665 499.37347412 C-172.85105727 499.36102694 -184.35752642 499.3281817 -195.86408025 499.28807616 C-208.96182365 499.24341268 -222.05957418 499.22138506 -235.15737474 499.20129442 C-262.10500057 499.15945064 -289.05249181 499.0890647 -316 499 C-314.77892836 495.88965503 -313.53389416 493.02112135 -311.78515625 490.171875 C-311.35211182 489.46361572 -310.91906738 488.75535645 -310.47290039 488.02563477 C-310.00746826 487.27467529 -309.54203613 486.52371582 -309.0625 485.75 C-308.33051392 484.56071899 -308.33051392 484.56071899 -307.58374023 483.34741211 C-303.86500921 477.33215131 -300.05058507 471.38231732 -296.19091797 465.45678711 C-292.81261241 460.26914248 -289.48678945 455.05072639 -286.1875 449.8125 C-281.8496634 442.92702267 -277.49604464 436.05195109 -273.125 429.1875 C-272.24751099 427.8094519 -272.24751099 427.8094519 -271.35229492 426.40356445 C-270.1623553 424.53510329 -268.97233223 422.66669525 -267.78222656 420.79833984 C-264.85345187 416.19976238 -261.92682309 411.59981973 -259 407 C-257.83334387 405.16665996 -256.6666772 403.33332663 -255.5 401.5 C-254.9225 400.5925 -254.345 399.685 -253.75 398.75 C-247.33333333 388.66666667 -240.91666667 378.58333333 -234.5 368.5 C-233.92266113 367.5927417 -233.34532227 366.6854834 -232.75048828 365.75073242 C-231.58223612 363.91493088 -230.41394176 362.0791562 -229.24560547 360.2434082 C-226.35285245 355.69805624 -223.4608023 351.15226033 -220.5703125 346.60546875 C-214.39533623 336.89391516 -208.20659636 327.19138041 -202 317.5 C-192.13215573 302.09054339 -182.29965908 286.6591455 -172.53808594 271.18212891 C-168.11363541 264.17064858 -163.66113201 257.17717304 -159.20654297 250.18481445 C-155.49820526 244.36143006 -151.80559731 238.5284479 -148.125 232.6875 C-142.76544044 224.18463118 -137.34615115 215.72054628 -131.92236328 207.25854492 C-127.92578143 201.01966429 -123.94829269 194.76954169 -120 188.5 C-114.68371937 180.05821373 -109.30536081 171.65685991 -103.921875 163.2578125 C-99.92547759 157.01916157 -95.9481902 150.76925979 -92 144.5 C-86.72951863 136.13236654 -81.40193516 127.80192893 -76.06689453 119.4753418 C-69.93049828 109.89680849 -63.82064126 100.30157916 -57.71777344 90.70166016 C-54.81326435 86.13353941 -51.9064816 81.56686586 -49 77 C-48.42378906 76.09443359 -47.84757812 75.18886719 -47.25390625 74.25585938 C-44.31351264 69.63477098 -41.37232148 65.01419338 -38.4296875 60.39453125 C-32.45527231 51.01365126 -26.49421146 41.6247277 -20.56054688 32.21801758 C-16.51220917 25.80340752 -12.4465306 19.39991104 -8.375 13 C-7.77042969 12.04931641 -7.16585938 11.09863281 -6.54296875 10.11914062 C-5.97964844 9.23419922 -5.41632813 8.34925781 -4.8359375 7.4375 C-4.33626465 6.65246094 -3.8365918 5.86742187 -3.32177734 5.05859375 C-2.23187185 3.36112735 -1.1189674 1.6784511 0 0 Z " fill="#003993" transform="translate(436,283)"/>
<path d="M0 0 C61.05 0 122.1 0 185 0 C185 61.05 185 122.1 185 185 C123.95 185 62.9 185 0 185 C0 123.95 0 62.9 0 0 Z " fill="#003993" transform="translate(1773,88)"/>
<path d="M0 0 C60.72 0 121.44 0 184 0 C184 61.05 184 122.1 184 185 C123.28 185 62.56 185 0 185 C0 123.95 0 62.9 0 0 Z " fill="#003993" transform="translate(2378,88)"/>
<path d="M0 0 C0.66 0.33 1.32 0.66 2 1 C-3.61 6.61 -9.22 12.22 -15 18 C-15 13.78193333 -13.14807199 12.61332709 -10.3125 9.5625 C-9.44238281 8.61503906 -8.57226562 7.66757813 -7.67578125 6.69140625 C-5.23784139 4.23923024 -2.74711696 2.0937486 0 0 Z " fill="#004B97" transform="translate(556,104)"/>
</svg>
